<svg id="Calque_1" data-name="Calque 1" xmlns="http://www.w3.org/2000/svg" viewBox="0 0 450 450"><defs><style>.cls-1{fill:#46b4e7;}</style></defs><title>logo_amundi_2</title><path class="cls-1" d="M148.34,83.24l31.37,18.6L190.4,217.9l-25.69-16.58L101,146.78c9.71-25.89,39.17-55.58,47.39-63.54m-.56-5S106.72,116.1,96.27,148l66.05,56.5,32.82,21.18L183.5,99.44,147.78,78.26Z"/><path class="cls-1" d="M144.76,87l12.42,107.9-56.3-48.15C108,126.47,133.24,98.87,144.76,87m3-8.72S104.14,120.34,96.27,148l66.05,56.5L147.78,78.26Z"/><path class="cls-1" d="M94.58,171.61l26.16,15.55,54.91,43.63L89.6,335,78.26,327.8c-1.72-4.22-8-21-9.54-45.74a190.6,190.6,0,0,1,3.78-51,220.35,220.35,0,0,1,22.08-59.42m-1.51-5.55c-51.5,91.79-18,164.45-18,164.45l15.37,9.73,90.89-110L123,183.86l-29.95-17.8Z"/><path class="cls-1" d="M94.23,172.11l60.25,48.15L76.3,322.34a155.31,155.31,0,0,1-8.24-51.87,199.25,199.25,0,0,1,7.51-51.57,231.09,231.09,0,0,1,18.66-46.79m-1.16-6.05s-50.76,82.62-18,164.45l85-110.93-67-53.52Z"/><path class="cls-1" d="M242.75,24.36a80.83,80.83,0,0,1,37.52,8.81L191.65,189,172.24,50.16c23.66-17.12,47.38-25.8,70.51-25.8m0-4c-19.85,0-45.53,6.24-74.8,28l21.37,152.87L285.69,31.73s-16.16-11.37-42.94-11.37Z"/><path class="cls-1" d="M230.85,226.54,186.66,202,276.88,25l1.71.71A203.92,203.92,0,0,1,321.83,50.1l1.3,1-.77,1.47ZM192,200.4l37.23,20.66L318,52.24a204.94,204.94,0,0,0-39.27-22.15Z"/><path class="cls-1" d="M172,431.73l-1.75-.27c-.5-.08-50.84-8.27-85.56-33.87l-1.39-1,93.2-175.43,48.76,24.38-.45,1.59ZM88.44,395.39c30.23,21.62,71.73,30.16,80.68,31.81l51.36-179.59-42.29-21.15Z"/><path class="cls-1" d="M168.06,241,120.43,401.14A66.64,66.64,0,0,1,74.87,383a75.38,75.38,0,0,1-13.3-16.18L168.06,241m9.27-17.16L56.72,366.38s19,38.76,64.63,38.76c.68,0,1.37,0,2.07,0L177.33,223.8Z"/><path class="cls-1" d="M193.82,249.52l29.44,14.32V411.31a80.42,80.42,0,0,1-35.87,9.05l-1.39,0L149.35,401.1l44.47-151.58m-2.51-5.67L144.59,403.12l40.33,21.17s.88.07,2.47.07a84.82,84.82,0,0,0,39.87-10.66V261.34l-35.95-17.49Z"/><path class="cls-1" d="M186.15,275.65,182,389.48c-4.78,2.43-17.85,8.41-32,9.48l36.18-123.31m5.16-31.8L144.59,403.12h1.07c20.77,0,40.26-11.19,40.26-11.19l5.39-148.09Z"/><path class="cls-1" d="M309.48,30.85l46,23.54c1.6,1,28.47,18.11,34.83,63.33L256.21,212.43l-39.55-18.07L309.48,30.85m-1.59-5.31L211,196.19,256.64,217l138-97.43c-6.19-50.68-37.17-68.7-37.17-68.7L307.89,25.54Z"/><path class="cls-1" d="M309.34,31.1c8.27,5.57,29.82,23.49,34.32,61.31L223.9,181.61,309.34,31.1m-1.45-5.56L211,196.19,347.88,94.25c-5.07-51.25-40-68.71-40-68.71Z"/><path class="cls-1" d="M338.83,120.28l42.24,22.05c1.31,8.29,5.79,43-4.12,79.89L251.61,239.7l-41.25-23.59,128.47-95.83m-.38-4.71-135.38,101,47.74,27.3,129.3-18c12.7-44.45,4.57-86.11,4.57-86.11l-46.23-24.13Z"/><path class="cls-1" d="M335.61,122.68c4.16,29.79-3.21,65.45-5.48,75.35L217.34,210.89l118.27-88.21m2.84-7.11-135.38,101,130.3-14.87s12.66-49.07,5.08-86.11Z"/><path class="cls-1" d="M342.25,215.67l43,22.3c-1.93,8.47-8.7,34.71-24.77,65.76a285.29,285.29,0,0,1-41.2,60,251.26,251.26,0,0,1-66.59,52.74l-42.74-22.81,5-163.46,127.33-14.49m.76-4.11-132,15L205.86,396l46.82,25c114.09-60.85,137.1-185.14,137.1-185.14L343,211.56Z"/><path class="cls-1" d="M337.66,216.19A345.49,345.49,0,0,1,311,282.38a294.2,294.2,0,0,1-41.56,60.14c-17.8,19.65-37.73,35.38-59.35,46.84l4.86-159.2,122.74-14m5.35-4.63-132,15L205.86,396C312.72,343.93,343,211.56,343,211.56Z"/></svg>